<svg xmlns="http://www.w3.org/2000/svg" viewBox="0 0 365 145.001"><defs><style>.a{fill:#7b7b7b;}.b{fill:none;}</style></defs><g transform="translate(-923 873)"><path class="a" d="M246,145H0V0H246V145ZM66.516,58.91a8.383,8.383,0,0,0-5.224,2.065c-3.145,2.551-39.6,39.59-39.964,39.964v23.376h204.22v-59L184.511,24.274a8.113,8.113,0,0,0-5.8-2.649,10.391,10.391,0,0,0-6.413,2.649c-2.582,2.193-68.221,68.218-68.884,68.884L71.227,60.975A6.6,6.6,0,0,0,66.516,58.91ZM38,22.5a16.5,16.5,0,1,0,11.667,4.833A16.392,16.392,0,0,0,38,22.5Z" transform="translate(983 -873)"/><rect class="b" width="365" height="145" transform="translate(923 -873)"/></g></svg>