<svg xmlns="http://www.w3.org/2000/svg" viewBox="0 0 48.724 47.191">
  <defs>
    <style>
      .cls-1 {
        fill: #fff;
      }
    </style>
  </defs>
  <g id="Group_8" data-name="Group 8" transform="translate(-495.67 -68.67)">
    <path id="Subtraction_1" data-name="Subtraction 1" class="cls-1" d="M19.266,38.531a19.407,19.407,0,0,1-3.883-.391,19.16,19.16,0,0,1-6.889-2.9,19.322,19.322,0,0,1-6.98-8.476A19.169,19.169,0,0,1,.391,23.148a19.453,19.453,0,0,1,0-7.765,19.16,19.16,0,0,1,2.9-6.889,19.322,19.322,0,0,1,8.476-6.98A19.169,19.169,0,0,1,15.383.391a19.453,19.453,0,0,1,7.765,0,19.16,19.16,0,0,1,6.889,2.9,19.322,19.322,0,0,1,6.98,8.476,19.168,19.168,0,0,1,1.123,3.616,19.453,19.453,0,0,1,0,7.765,19.16,19.16,0,0,1-2.9,6.889,19.322,19.322,0,0,1-8.476,6.98,19.168,19.168,0,0,1-3.616,1.123A19.407,19.407,0,0,1,19.266,38.531Zm6.007-12.623a3.731,3.731,0,1,0,1.457.294A3.72,3.72,0,0,0,25.272,25.908ZM13.06,25a3.731,3.731,0,1,0,1.457.294A3.719,3.719,0,0,0,13.06,25Zm18.274-9.166a3.731,3.731,0,1,0,1.457.294A3.719,3.719,0,0,0,31.334,15.833ZM7.476,15.242a3.731,3.731,0,1,0,1.457.294A3.719,3.719,0,0,0,7.476,15.242Zm18.212-9.7a3.731,3.731,0,1,0,1.457.294A3.719,3.719,0,0,0,25.688,5.544Zm-12.1-.373a3.731,3.731,0,1,0,1.457.294A3.72,3.72,0,0,0,13.584,5.171Z" transform="matrix(0.966, -0.259, 0.259, 0.966, 495.67, 78.643)"/>
    <circle id="Ellipse_8" data-name="Ellipse 8" class="cls-1" cx="2.932" cy="2.932" r="2.932" transform="translate(538.531 105.668)"/>
    <path id="Path_2" data-name="Path 2" class="cls-1" d="M526.727,109.976s-15.092,5.319-15.206,5.136a47.368,47.368,0,0,1,1.833-4.6Z"/>
  </g>
</svg>
